<svg width="148" height="45" viewBox="0 0 148 45" fill="none" xmlns="http://www.w3.org/2000/svg">
<g clip-path="url(#clip0_4_98)">
<path fill-rule="evenodd" clip-rule="evenodd" d="M135.506 38.7565C134.109 38.7565 132.98 38.4707 131.729 37.8047C131.672 37.7755 131.628 37.7249 131.607 37.6637C131.587 37.6025 131.591 37.5356 131.618 37.4773L132.817 34.8887C132.832 34.8571 132.853 34.8287 132.879 34.8053C132.905 34.782 132.935 34.764 132.968 34.7526C133.037 34.7323 133.111 34.7391 133.175 34.7717C133.845 35.134 134.502 35.3162 135.126 35.3162C135.895 35.3162 136.46 35.0676 137.033 33.8143L131.977 21.8871H128.676V33.8155C128.676 33.8839 128.648 33.9493 128.6 33.9974C128.551 34.0454 128.486 34.0723 128.417 34.072H124.882C124.848 34.0721 124.815 34.0656 124.784 34.0528C124.753 34.04 124.724 34.0211 124.7 33.9973C124.676 33.9735 124.657 33.9452 124.644 33.914C124.631 33.8828 124.624 33.8493 124.624 33.8155V21.8871H122.927C122.893 21.8874 122.86 21.881 122.828 21.8683C122.797 21.8557 122.769 21.8369 122.745 21.8132C122.72 21.7895 122.701 21.7613 122.688 21.7301C122.675 21.699 122.668 21.6655 122.668 21.6317V18.6291C122.669 18.5608 122.696 18.4957 122.745 18.4479C122.793 18.4001 122.859 18.3734 122.927 18.3737H124.624V17.6368C124.624 14.2168 126.351 12.4078 129.616 12.4078C130.957 12.4078 131.854 12.6193 132.555 12.8241C132.607 12.8396 132.653 12.8716 132.686 12.9154C132.718 12.9592 132.736 13.0124 132.736 13.0671V15.9977C132.736 16.0386 132.727 16.079 132.708 16.1155C132.69 16.152 132.664 16.1838 132.631 16.2081C132.597 16.2311 132.558 16.246 132.517 16.2516C132.477 16.2573 132.435 16.2535 132.396 16.2407C131.734 16.0236 131.142 15.8785 130.405 15.8785C129.169 15.8785 128.618 16.5096 128.618 17.9237V18.4052H134.658C134.764 18.4052 134.862 18.4693 134.898 18.5683L139.028 29.1681L142.798 18.5762C142.816 18.5256 142.849 18.482 142.893 18.4513C142.937 18.4206 142.989 18.4045 143.042 18.4052H146.723C146.81 18.4052 146.887 18.4457 146.936 18.5143C146.96 18.5486 146.974 18.588 146.979 18.6291C146.983 18.6703 146.978 18.7119 146.963 18.7506L140.83 34.342C139.558 37.5595 138.115 38.7565 135.506 38.7565ZM119.011 16.468C117.612 16.468 116.474 15.352 116.474 13.9738C116.474 12.5946 117.612 11.4797 119.011 11.4797C120.411 11.4797 121.547 12.5946 121.547 13.9738C121.547 15.352 120.411 16.468 119.011 16.468ZM111.175 21.8871V29.077C111.175 30.211 111.682 30.7172 112.816 30.7172C113.551 30.7172 114.209 30.562 114.89 30.2256C114.929 30.206 114.973 30.1968 115.017 30.1987C115.062 30.2007 115.104 30.2138 115.142 30.2368C115.179 30.2594 115.21 30.2912 115.232 30.3292C115.253 30.3673 115.264 30.4103 115.264 30.454V33.3013C115.264 33.3461 115.252 33.39 115.228 33.4284C115.205 33.4668 115.172 33.4983 115.133 33.5196C114.142 34.0742 113.09 34.3318 111.822 34.3318C108.704 34.3318 107.123 32.7467 107.123 29.6226V21.8871H105.422C105.389 21.8872 105.356 21.8807 105.324 21.868C105.293 21.8552 105.265 21.8365 105.241 21.8127C105.217 21.789 105.198 21.7608 105.186 21.7298C105.173 21.6987 105.166 21.6654 105.166 21.6317V18.6448C105.166 18.5031 105.281 18.3895 105.422 18.3895H107.123V14.4745C107.123 14.335 107.239 14.2213 107.382 14.2213H110.916C111.06 14.2213 111.175 14.335 111.175 14.4745V18.3895H115.065C115.207 18.3895 115.323 18.5031 115.323 18.6448V21.6317C115.323 21.6655 115.316 21.6989 115.303 21.73C115.29 21.7612 115.271 21.7894 115.247 21.8131C115.223 21.8369 115.194 21.8556 115.163 21.8683C115.132 21.881 115.098 21.8874 115.065 21.8871H111.175ZM96.3652 34.4173C91.6337 34.4173 87.927 30.8477 87.927 26.2892C87.927 21.6801 91.6595 18.0711 96.4235 18.0711C101.172 18.0711 104.891 21.6553 104.891 26.2307C104.891 30.8218 101.147 34.4173 96.3652 34.4173ZM96.3652 21.6283C93.8223 21.6283 91.979 23.5633 91.979 26.2307C91.979 28.8857 93.8896 30.8905 96.4235 30.8905C98.9821 30.8905 100.839 28.9555 100.839 26.2892C100.839 23.6308 98.916 21.6283 96.3652 21.6283ZM79.3789 34.3892C77.3887 34.3892 75.7551 33.6613 74.4085 32.1741V38.4145C74.4082 38.4482 74.4013 38.4815 74.3881 38.5125C74.3749 38.5436 74.3557 38.5717 74.3316 38.5952C74.3075 38.6187 74.279 38.6372 74.2478 38.6497C74.2165 38.6621 74.1831 38.6682 74.1495 38.6676H70.6155C70.5818 38.6682 70.5485 38.6621 70.5172 38.6497C70.4859 38.6372 70.4575 38.6187 70.4334 38.5952C70.4093 38.5717 70.3901 38.5436 70.3769 38.5125C70.3637 38.4815 70.3568 38.4482 70.3565 38.4145V18.6448C70.3565 18.5031 70.4719 18.3895 70.6155 18.3895H74.1495C74.293 18.3895 74.4085 18.5031 74.4085 18.6448V20.4223C75.7551 18.8428 77.3887 18.0711 79.3789 18.0711C83.0789 18.0711 86.8248 20.8723 86.8248 26.2307C86.8248 31.5868 83.0789 34.3892 79.3789 34.3892ZM78.5615 21.6002C76.143 21.6002 74.32 23.5892 74.32 26.2307C74.32 28.8711 76.143 30.8612 78.5615 30.8612C81.0057 30.8612 82.7133 28.9566 82.7133 26.2307C82.7133 23.5465 80.9665 21.6002 78.5615 21.6002ZM62.2142 21.9017C67.0265 23.0515 68.9875 24.8402 68.9875 28.069C68.9875 31.8895 66.0174 34.36 61.4249 34.36C58.2203 34.3764 55.1222 33.2068 52.7232 31.075C52.6981 31.0538 52.6775 31.0278 52.6625 30.9985C52.6476 30.9693 52.6386 30.9373 52.6361 30.9046C52.6336 30.8718 52.6376 30.8388 52.6479 30.8076C52.6583 30.7764 52.6747 30.7476 52.6962 30.7228L54.8579 28.1927C54.8801 28.1667 54.9072 28.1454 54.9376 28.13C54.968 28.1145 55.0011 28.1053 55.0351 28.1027C55.1038 28.0979 55.1719 28.1192 55.2257 28.1623C57.3291 29.9545 59.2082 30.7172 61.5123 30.7172C63.5877 30.7172 64.876 29.8363 64.876 28.4143C64.876 27.1318 64.2391 26.4163 60.4595 25.5591C56.0229 24.5027 53.4542 23.1358 53.4542 19.2737C53.4542 15.6726 56.4321 13.1571 60.6938 13.1571C63.5922 13.1571 66.0745 14.002 68.2755 15.7412C68.3831 15.8256 68.4044 15.9775 68.3259 16.0866L66.3986 18.7607C66.3574 18.8169 66.2957 18.8545 66.227 18.8653C66.1582 18.8757 66.0881 18.8583 66.0319 18.817C64.1819 17.4602 62.416 16.801 60.6356 16.801C58.799 16.801 57.5645 17.6683 57.5645 18.9598C57.5645 20.3245 58.2664 20.9758 62.2142 21.9017ZM45.6808 23.9976C45.664 24.2462 45.6483 24.4937 45.6236 24.739C45.6091 24.8852 45.5878 25.0292 45.5709 25.1732C45.544 25.3948 45.5182 25.6153 45.4857 25.8336C45.4622 25.9866 45.4342 26.1385 45.4072 26.2903C45.3714 26.4985 45.3366 26.7066 45.2951 26.9125C45.2637 27.0677 45.2278 27.2207 45.1931 27.3748C45.1482 27.5751 45.1034 27.7742 45.0529 27.9722C45.0137 28.1275 44.97 28.2805 44.9274 28.4346C44.8735 28.6281 44.8197 28.8216 44.7603 29.014C44.6552 29.3569 44.5415 29.6971 44.4195 30.0343C44.2428 30.5198 44.0502 30.9993 43.842 31.4721C43.6968 31.7962 43.5458 32.1176 43.3891 32.4362C43.2994 32.6151 43.2063 32.7906 43.1132 32.9661C43.0392 33.1033 42.9664 33.2395 42.8901 33.3756C42.791 33.5505 42.6897 33.7241 42.5863 33.8965C42.5078 34.027 42.4304 34.1575 42.3497 34.2868C42.2409 34.4612 42.1277 34.6322 42.0133 34.8032C41.9315 34.9258 41.8519 35.0496 41.7678 35.17C41.6467 35.3455 41.52 35.5165 41.3933 35.6886C41.3103 35.8011 41.2307 35.9136 41.1455 36.025C41.0065 36.2072 40.8619 36.3838 40.7161 36.5616C40.6387 36.6572 40.5636 36.754 40.4851 36.8485C40.3069 37.06 40.1218 37.2658 39.9369 37.4717C39.8853 37.5268 39.8382 37.5853 39.7866 37.6405C39.5455 37.9003 39.3 38.1546 39.0466 38.4032C39.0018 38.4482 38.9524 38.491 38.9065 38.536C38.7002 38.7369 38.4901 38.9338 38.2763 39.1266C38.1855 39.2087 38.0913 39.2852 38.0005 39.3651C37.8256 39.517 37.6518 39.6688 37.4724 39.8151C37.3637 39.904 37.2527 39.9883 37.1428 40.075C36.9746 40.2066 36.8075 40.3382 36.636 40.4665C36.516 40.5553 36.3938 40.6397 36.2727 40.7263L35.8926 40.993C35.9285 40.9671 35.9678 40.9457 36.0048 40.921C35.9622 40.9502 35.9184 40.975 35.8758 41.0042C35.8399 41.029 35.8052 41.0548 35.7693 41.0785C35.6404 41.1651 35.5103 41.2483 35.3802 41.3316C35.1589 41.4748 34.935 41.6139 34.7086 41.749L34.6302 41.794C34.647 41.785 34.6649 41.776 34.6806 41.7658L34.4463 41.902C34.2803 41.9987 34.1144 42.0932 33.9462 42.1855L33.7253 42.3025C33.5964 42.3711 33.4652 42.4386 33.334 42.505L33.2656 42.5387C33.1647 42.5893 33.0661 42.6411 32.964 42.6906C32.8272 42.7558 32.6905 42.8211 32.5514 42.8852L32.4393 42.9347C32.316 42.991 32.1926 43.0461 32.0682 43.1001L32.0144 43.1237C31.9056 43.171 31.7946 43.216 31.6847 43.2621C31.4932 43.3416 31.3004 43.4177 31.1062 43.4905C30.975 43.54 30.8449 43.5883 30.7138 43.6356L30.5445 43.6975C30.3998 43.7481 30.2529 43.7965 30.1061 43.8437C29.9861 43.8831 29.8661 43.9225 29.745 43.9596L29.6968 43.9742C29.5668 44.0147 29.4367 44.053 29.3055 44.0901L28.931 44.1958C28.7707 44.2386 28.6115 44.2825 28.45 44.323L28.3682 44.341L28.1664 44.3905C28.2022 44.3826 28.2359 44.3713 28.2718 44.3635L28.0386 44.4163C28.08 44.4062 28.1238 44.4006 28.1664 44.3905C28.0677 44.4141 27.9679 44.4321 27.8692 44.4546L27.8547 44.458C27.6943 44.4928 27.5351 44.53 27.3737 44.5615C27.2066 44.5941 27.0384 44.6222 26.8702 44.6503C26.7716 44.6672 26.674 44.6886 26.5754 44.7043C26.6213 44.6965 26.6662 44.6852 26.7122 44.6773L26.4689 44.7178C26.5047 44.7122 26.5406 44.71 26.5754 44.7043L26.4106 44.728L26.2782 44.7505C26.0551 44.7831 25.8298 44.8078 25.6044 44.8348C25.4586 44.8517 25.3129 44.8731 25.1649 44.8866L25.1312 44.8911H25.1099C25.0494 44.8967 24.9866 44.899 24.9261 44.9046C24.787 44.917 24.648 44.9248 24.509 44.935C24.0369 44.9687 23.5616 44.9901 23.0817 44.9946C23.0391 44.9946 22.9987 45.0002 22.9572 45.0002H22.7857C22.7453 45.0002 22.7072 44.9957 22.6668 44.9946C22.176 44.9893 21.6854 44.9687 21.1958 44.9327C21.0624 44.9226 20.9278 44.9147 20.7944 44.9035C20.7406 44.8978 20.6856 44.8967 20.6307 44.8911H20.6105C20.2112 44.8503 19.813 44.7985 19.4164 44.7358C19.4736 44.7448 19.5319 44.7493 19.5891 44.7572C19.4467 44.7358 19.3009 44.7235 19.1597 44.701L18.9579 44.665C19.0117 44.674 19.0644 44.6886 19.1182 44.6976C19.0218 44.6818 18.9276 44.6593 18.8312 44.6425L18.7975 44.6368C18.7381 44.6267 18.6809 44.6121 18.6226 44.602C18.2429 44.534 17.865 44.4567 17.4891 44.3702L17.5967 44.3916L17.4195 44.3511L17.4891 44.3702C17.3265 44.332 17.1684 44.2836 17.0069 44.2408L17.0327 44.2476C17.0159 44.2442 17.0002 44.2386 16.9834 44.2341L17.0069 44.2408C16.6807 44.1565 16.3544 44.0721 16.0337 43.9742L15.9934 43.963C15.9496 43.9495 15.907 43.9337 15.8633 43.9191L15.8431 43.9123C15.6626 43.855 15.4855 43.7886 15.3061 43.7267L15.5393 43.8066C15.4159 43.765 15.2937 43.7211 15.1715 43.6772L15.3061 43.7267C15.0314 43.6322 14.7567 43.5377 14.4876 43.4331L14.3519 43.3802C14.3329 43.3723 14.3149 43.3633 14.2959 43.3566C14.1114 43.282 13.9279 43.2051 13.7453 43.126C13.8653 43.1777 13.9864 43.2261 14.1064 43.2756C13.9281 43.2025 13.7509 43.1248 13.5749 43.0483C13.6321 43.0731 13.6882 43.1012 13.7453 43.126C13.557 43.045 13.3664 42.9662 13.1802 42.8796L13.1399 42.8627C13.1152 42.8515 13.0894 42.8413 13.0648 42.829C12.9762 42.7885 12.8921 42.739 12.8046 42.6973C12.6252 42.6096 12.4459 42.5241 12.2687 42.433C12.4201 42.5106 12.5748 42.5826 12.7284 42.658C12.5084 42.5503 12.2902 42.4393 12.0736 42.325C12.1398 42.3598 12.2025 42.3981 12.2687 42.433C12.1196 42.3553 11.9716 42.2788 11.8247 42.199L11.7709 42.1708C11.7159 42.1416 11.6621 42.109 11.6083 42.0786C11.5377 42.0403 11.4715 41.9965 11.402 41.956L11.3426 41.9222L11.3729 41.9391C11.1295 41.7996 10.8896 41.6578 10.653 41.5105C10.7237 41.5543 10.7909 41.6038 10.8627 41.6477C10.7472 41.578 10.6351 41.5037 10.5219 41.4328L10.5118 41.4261L10.3391 41.317C10.2516 41.2607 10.1687 41.1988 10.0823 41.1415C9.89734 41.0188 9.70785 40.903 9.52622 40.7747C9.66188 40.8703 9.80652 40.9547 9.94443 41.047C9.70225 40.885 9.45782 40.7263 9.22237 40.5542L9.2717 40.5913C9.25488 40.5801 9.23919 40.5666 9.22237 40.5542C9.00261 40.3922 8.78846 40.2235 8.57431 40.0547L8.56422 40.0468L8.56197 40.0457C8.46779 39.9703 8.37137 39.8983 8.27719 39.8218L8.27606 39.8207L8.23906 39.7892C7.97894 39.5755 7.72106 39.3572 7.47103 39.1322L7.45085 39.1153L7.43516 39.1007C7.34322 39.0186 7.258 38.932 7.16831 38.8476C6.99116 38.6833 6.814 38.5191 6.64246 38.3492L6.62116 38.329C6.55052 38.2592 6.48325 38.1861 6.41373 38.1152C6.46979 38.1726 6.52249 38.2333 6.57967 38.2896C6.52249 38.2322 6.46867 38.1715 6.41149 38.113L6.31955 38.0162C6.1637 37.8542 6.00673 37.6945 5.85537 37.528L5.85312 37.5246C5.76679 37.4301 5.6827 37.3333 5.59861 37.2377L5.53358 37.1623C5.30526 36.9008 5.08247 36.6345 4.86534 36.3636C4.84291 36.3366 4.82161 36.3073 4.80031 36.2792C4.58939 36.0139 4.38453 35.7439 4.18588 35.4692C4.16122 35.4343 4.13879 35.3983 4.11413 35.3646C3.98812 35.1866 3.8644 35.0069 3.743 34.8257C3.68134 34.7335 3.61743 34.6412 3.55688 34.5467C3.52885 34.504 3.50419 34.4601 3.47728 34.4173C3.36313 34.2383 3.25174 34.0575 3.14316 33.8751C3.1297 33.8503 3.114 33.8267 3.09943 33.8031C3.05794 33.7345 3.01534 33.667 2.97497 33.5972C2.9447 33.5455 2.91779 33.4915 2.88864 33.4386C2.78361 33.2518 2.6812 33.0635 2.58143 32.8738C2.53322 32.785 2.48276 32.6983 2.43679 32.6083C2.40764 32.5521 2.38185 32.4947 2.35382 32.4385C2.25445 32.2392 2.15876 32.0382 2.06679 31.8355C2.02979 31.7578 1.99055 31.6802 1.95467 31.6015L1.89637 31.4653C1.79209 31.2313 1.69455 30.994 1.59925 30.7555L1.52076 30.5653L1.48825 30.4765C1.37764 30.1889 1.27334 29.899 1.17543 29.6068L1.13731 29.4988L1.12609 29.464C0.848876 28.6283 0.621982 27.7766 0.44664 26.9136L0.437671 26.8686C0.419731 26.7797 0.407398 26.6897 0.39058 26.602C0.341193 26.347 0.296338 26.0912 0.256034 25.8347L0.239216 25.7357C0.221277 25.6097 0.210065 25.4815 0.194368 25.3543C0.163086 25.1238 0.135799 24.8928 0.112519 24.6613C0.110277 24.6388 0.105792 24.6163 0.104671 24.5927C0.101307 24.5623 0.102428 24.5308 0.100186 24.4993C0.0384139 23.8362 0.0066136 23.1707 0.00488281 22.5047C0.00488281 22.2156 0.0160949 21.9276 0.0273071 21.6407C0.0340343 21.4776 0.0407616 21.3145 0.0497313 21.1513C0.0631858 20.9342 0.0811252 20.7193 0.100186 20.5045C0.0878525 20.635 0.0710343 20.7655 0.0620646 20.8971C0.0710343 20.7643 0.0889737 20.6338 0.100186 20.5011C0.114762 20.3391 0.129337 20.1782 0.147277 20.0173C0.171943 19.8036 0.199974 19.5898 0.230246 19.3772C0.252671 19.2175 0.275095 19.0588 0.300883 18.9013V18.9002C0.33564 18.6898 0.374883 18.4806 0.415246 18.2725V18.2702C0.445519 18.1138 0.475792 17.9575 0.509428 17.8022V17.8011C0.555073 17.5941 0.603664 17.3879 0.655186 17.1823C0.692186 17.0293 0.730307 16.8752 0.771792 16.7233V16.7211C0.826731 16.5186 0.885034 16.3195 0.94558 16.1203L0.946701 16.1158C0.991549 15.9651 1.0364 15.8132 1.08461 15.6647L1.08573 15.6613C1.14964 15.4645 1.21803 15.2698 1.28755 15.0752L1.28979 15.0696C1.34249 14.9222 1.39406 14.7748 1.45013 14.6286L1.45125 14.6252C1.52413 14.4328 1.60149 14.2438 1.67885 14.0548L1.68222 14.047C1.74164 13.903 1.80106 13.7578 1.86273 13.615L1.86497 13.6116C1.94895 13.423 2.03529 13.2355 2.12397 13.0491C2.19013 12.9085 2.25516 12.7667 2.32467 12.6283L2.32691 12.6238C2.41661 12.4427 2.51079 12.265 2.60609 12.0872L2.6117 12.076C2.68458 11.9398 2.75634 11.8015 2.83258 11.6665L2.83482 11.662C2.93237 11.4876 3.03552 11.3155 3.13755 11.1433L3.1454 11.131C3.225 10.9982 3.30349 10.8643 3.38534 10.7327L3.3887 10.7282C3.4941 10.5595 3.60397 10.3941 3.71385 10.2287L3.72282 10.2141C3.80916 10.0858 3.89325 9.95646 3.98182 9.82933L3.98519 9.82371C4.09731 9.66171 4.21503 9.50308 4.33164 9.34333L4.34397 9.32758C4.43591 9.20271 4.52561 9.07783 4.61979 8.9552L4.62428 8.94958C4.74312 8.79433 4.86758 8.64246 4.99203 8.48946L5.00549 8.47258C5.10303 8.35221 5.19946 8.23183 5.29925 8.11371C5.30039 8.11158 5.30191 8.10967 5.30373 8.10808C5.42931 7.95958 5.56049 7.81333 5.69055 7.66821L5.70737 7.65021C5.81052 7.53433 5.91143 7.41846 6.01682 7.30483L6.02243 7.30033C6.15473 7.15746 6.29264 7.01908 6.42831 6.88071L6.44737 6.86158C6.55613 6.75133 6.66264 6.63996 6.77364 6.53196C6.77546 6.53036 6.77698 6.52846 6.77813 6.52633L6.81849 6.48583L6.78037 6.52521C6.90034 6.40821 7.02479 6.29571 7.147 6.18096C7.04609 6.27546 6.94182 6.36658 6.84203 6.46221C6.95976 6.34858 7.08309 6.23946 7.20306 6.12808L7.22437 6.10896C7.33873 6.00321 7.45085 5.89633 7.56634 5.79396L7.57194 5.78946C7.6964 5.67808 7.82646 5.57233 7.95428 5.46321C7.84664 5.55433 7.73676 5.64096 7.63137 5.73433C7.75694 5.62408 7.887 5.51946 8.0137 5.41258C8.0217 5.40556 8.02992 5.3988 8.03837 5.39233C8.15609 5.29333 8.2727 5.19208 8.39267 5.09533L8.39828 5.09083L8.45658 5.04246L8.3994 5.08971C8.52946 4.98508 8.66288 4.88495 8.79519 4.78371C8.68306 4.87033 8.56758 4.95358 8.45658 5.04246C8.58776 4.93671 8.72455 4.83658 8.85909 4.73421L8.88488 4.71396C9.00822 4.62058 9.12819 4.52608 9.25264 4.43496L9.25712 4.43158L9.31431 4.38883L9.26049 4.42933C9.39616 4.33033 9.53406 4.23696 9.67085 4.14133C9.55313 4.22458 9.43091 4.30333 9.31431 4.38883C9.45222 4.28758 9.59573 4.19308 9.737 4.09633L9.76616 4.07608C9.89173 3.98833 10.0162 3.89946 10.144 3.81508L10.1485 3.81171L10.2034 3.77458L10.1541 3.80833C10.2942 3.71608 10.4389 3.62946 10.5802 3.53945C10.4557 3.61821 10.3268 3.69358 10.2034 3.77458C10.3492 3.67896 10.4983 3.59008 10.6463 3.49783L10.6788 3.47871C10.8078 3.39771 10.9356 3.31446 11.0668 3.23683L11.0712 3.23458C11.0884 3.22305 11.106 3.21217 11.1239 3.20195L11.0791 3.23008C11.2249 3.14346 11.374 3.06246 11.522 2.97921C11.3897 3.05346 11.254 3.12433 11.1239 3.20195C11.2753 3.11195 11.4323 3.02871 11.5859 2.94321L11.6218 2.92296C11.7541 2.84983 11.8841 2.77333 12.0176 2.70133C12.0192 2.70102 12.0208 2.70024 12.022 2.69908L12.0725 2.67208L12.0321 2.69458C12.1846 2.61358 12.3416 2.53821 12.4952 2.46058C12.355 2.53146 12.2115 2.59783 12.0725 2.67208C12.2317 2.58771 12.3943 2.51121 12.5546 2.43021C12.568 2.42451 12.5811 2.41813 12.5939 2.41108C12.7284 2.34471 12.8607 2.27496 12.9975 2.21083L13.0009 2.20858L13.0491 2.18496L13.0143 2.20296C13.1746 2.12758 13.3383 2.05783 13.5009 1.98583C13.3507 2.05333 13.1982 2.11521 13.0491 2.18496C13.215 2.10733 13.3843 2.03758 13.5525 1.96333L13.5951 1.94421C13.7308 1.88458 13.8653 1.82158 14.0032 1.76533L14.0066 1.76308C14.0217 1.75718 14.0367 1.75081 14.0514 1.74396L14.0223 1.75746C14.1927 1.68658 14.3665 1.62358 14.5392 1.55721C14.3766 1.61908 14.2129 1.67871 14.0514 1.74396C14.2241 1.67308 14.4012 1.61008 14.5762 1.54258L14.6244 1.52458C14.7612 1.47171 14.8957 1.41658 15.0347 1.36596H15.037C15.0509 1.36003 15.0651 1.35477 15.0796 1.35021L15.0549 1.35921C15.2399 1.29283 15.4294 1.23433 15.6166 1.17246C15.4372 1.23208 15.2567 1.28721 15.0796 1.35021C15.2601 1.28608 15.444 1.22983 15.6256 1.16908L15.6817 1.15108C15.8185 1.10608 15.9519 1.05771 16.0887 1.01608H16.0909L16.1302 1.00371L16.1111 1.01046C16.3062 0.95083 16.5046 0.89908 16.7009 0.84508L16.6706 0.85408L16.7491 0.83158L16.8175 0.812455C16.9341 0.780955 17.0484 0.74608 17.1662 0.715705H17.1673L17.202 0.706705L17.1908 0.71008C17.3926 0.659455 17.5978 0.616705 17.8019 0.571705L17.7301 0.587455C17.8333 0.56383 17.9353 0.53908 18.0396 0.517705L18.1382 0.495205C18.1809 0.486205 18.2223 0.474955 18.2638 0.46708L18.2649 0.465955L18.2952 0.461455L18.2907 0.46258C18.5015 0.41983 18.7157 0.38608 18.9298 0.35008L18.8155 0.369205C19.0061 0.33658 19.1944 0.29833 19.385 0.270205L19.3862 0.26908L19.4052 0.26683H19.4097C19.5801 0.240955 19.7539 0.22408 19.9255 0.20158C19.81 0.216205 19.6922 0.229705 19.5768 0.245455C19.7472 0.22183 19.9199 0.20158 20.0914 0.18133L19.9255 0.20158C20.1239 0.17683 20.3212 0.14758 20.5219 0.12733H20.5231L20.5466 0.12508H20.5477C20.717 0.108205 20.8886 0.0992052 21.059 0.0868302L20.8919 0.0992052C21.0332 0.0879552 21.1734 0.0767052 21.3146 0.0677052L21.059 0.0868302C21.2642 0.0710802 21.4682 0.0508302 21.6745 0.0407052H21.6757L21.7015 0.0395802C21.8719 0.0305802 22.0445 0.0305802 22.215 0.0260802L22.1197 0.0283302C22.3697 0.0204552 22.6186 0.0103302 22.8709 0.0103302C35.5002 0.0103302 45.7369 10.0802 45.7369 22.5047C45.7369 22.8816 45.7257 23.2562 45.7077 23.6286C45.701 23.7523 45.6887 23.875 45.6808 23.9976ZM9.6047 29.7002C9.77849 30.454 10.5443 30.9265 11.3112 30.7532C19.2696 28.9645 26.0282 29.6935 31.3966 32.9222C32.0693 33.325 32.9472 33.1191 33.3576 32.4542C33.4549 32.2972 33.52 32.1223 33.5489 31.9397C33.5778 31.7571 33.5699 31.5706 33.5258 31.3911C33.4817 31.2116 33.4023 31.0427 33.2921 30.8946C33.1819 30.7464 33.0433 30.6218 32.8844 30.5282C26.8568 26.9035 19.3862 26.0608 10.6755 28.0206C10.4944 28.0588 10.3228 28.1328 10.1706 28.2383C10.0184 28.3438 9.88862 28.4787 9.78894 28.635C9.68925 28.7914 9.62162 28.9661 9.58998 29.149C9.55835 29.3319 9.56336 29.5193 9.6047 29.7002ZM8.69203 23.1178C8.97906 24.0437 9.9747 24.5657 10.9188 24.2856C18.1887 22.1155 27.5587 23.191 33.7029 26.908C34.5405 27.4131 35.6392 27.1555 36.155 26.332C36.2772 26.1357 36.359 25.9169 36.3958 25.6885C36.4325 25.4601 36.4233 25.2266 36.3687 25.0017C36.3142 24.7769 36.2154 24.5653 36.0782 24.3793C35.941 24.1934 35.7681 24.0368 35.5697 23.9188C28.5106 19.654 18.1876 18.4513 9.88164 20.9308C9.65967 20.9949 9.45258 21.1025 9.27235 21.2474C9.09213 21.3923 8.94235 21.5717 8.83171 21.7751C8.72106 21.9785 8.65174 22.2019 8.62776 22.4324C8.60379 22.6629 8.62563 22.8959 8.69203 23.1178ZM38.5791 16.333C30.0937 11.3773 16.6672 10.9116 8.59 13.3247C8.3236 13.4012 8.07503 13.5302 7.85875 13.704C7.64247 13.8778 7.46279 14.093 7.33018 14.3372C7.19757 14.5813 7.11467 14.8495 7.0863 15.126C7.05793 15.4026 7.08467 15.6821 7.16494 15.9482C7.50691 17.0608 8.701 17.6875 9.83231 17.35C16.8679 15.2496 29.0252 15.6467 36.3972 19.9521C36.8847 20.2376 37.4642 20.3203 38.0117 20.1826C38.5592 20.0449 39.0313 19.6977 39.3269 19.2152C39.47 18.9777 39.5643 18.7137 39.6042 18.439C39.644 18.1644 39.6286 17.8844 39.5589 17.6158C39.4892 17.3472 39.3666 17.0952 39.1983 16.8749C39.03 16.6546 38.8195 16.4703 38.5791 16.333ZM22.8103 0.0103302H22.8709C22.6511 0.0103302 22.4336 0.0204552 22.215 0.0260802C22.4134 0.0204552 22.6108 0.0103302 22.8103 0.0103302ZM120.761 18.3895C120.904 18.3895 121.02 18.5031 121.02 18.6448V33.8155C121.019 33.8839 120.991 33.9493 120.943 33.9974C120.894 34.0454 120.829 34.0723 120.761 34.072H117.225C117.157 34.0723 117.092 34.0454 117.043 33.9974C116.995 33.9493 116.967 33.8839 116.966 33.8155V18.6448C116.966 18.5031 117.083 18.3895 117.225 18.3895H120.761ZM145.755 29.257C147.016 29.257 147.997 30.2672 147.997 31.4935C147.996 32.0918 147.757 32.665 147.335 33.0872C146.912 33.5093 146.34 33.7458 145.743 33.7446C145.449 33.7467 145.158 33.6903 144.885 33.5786C144.613 33.467 144.365 33.3024 144.157 33.0943C143.948 32.8861 143.783 32.6386 143.67 32.366C143.557 32.0933 143.499 31.801 143.5 31.5058C143.5 30.2785 144.494 29.257 145.755 29.257ZM145.743 33.5196C146.009 33.5221 146.273 33.4715 146.519 33.3706C146.765 33.2696 146.989 33.1205 147.177 32.9318C147.365 32.7432 147.514 32.5188 147.614 32.2718C147.715 32.0249 147.765 31.7602 147.763 31.4935C147.766 31.2281 147.716 30.9648 147.616 30.719C147.516 30.4733 147.368 30.25 147.181 30.0624C146.994 29.8748 146.772 29.7266 146.527 29.6265C146.282 29.5265 146.019 29.4765 145.755 29.4797C144.606 29.4797 143.736 30.3898 143.736 31.5058C143.736 32.6218 144.6 33.5196 145.743 33.5196ZM146.798 31.0108C146.798 31.3945 146.575 31.6307 146.251 31.7241L146.886 32.6095H146.351L145.78 31.7961H145.289V32.6095H144.841V30.2616H145.891C146.439 30.2616 146.798 30.5406 146.798 31.0108ZM145.289 30.6632V31.4068H145.873C146.165 31.4068 146.339 31.2651 146.339 31.0345C146.339 30.7937 146.165 30.6632 145.873 30.6632H145.289Z" fill="white"/>
</g>
<defs>
<clipPath id="clip0_4_98">
<rect width="148" height="45" fill="white"/>
</clipPath>
</defs>
</svg>
